HIERARCHY
ROOT Hips
{
	OFFSET 0.000000 0.000000 0.000000 
	CHANNELS 6 Xposition Yposition Zposition Zrotation Yrotation Xrotation
	JOINT LeftUpLeg
	{
		OFFSET 1.363060 -1.794630 0.839290 
		CHANNELS 3 Zrotation Yrotation Xrotation
		JOINT LeftLeg
		{
			OFFSET 2.448110 -6.726130 0.000000 
			CHANNELS 3 Zrotation Yrotation Xrotation
			JOINT LeftFoot
			{
				OFFSET 2.562200 -7.039590 0.000000 
				CHANNELS 3 Zrotation Yrotation Xrotation
				JOINT LeftToeBase
				{
					OFFSET 0.157640 -0.433110 2.322550 
					CHANNELS 3 Zrotation Yrotation Xrotation
					End Site
					{
						OFFSET 0.000000 0.000000 0.000000 
					}
				}
			}
		}
	}
	JOINT RightUpLeg
	{
		OFFSET -1.305520 -1.794630 0.839290 
		CHANNELS 3 Zrotation Yrotation Xrotation
		JOINT RightLeg
		{
			OFFSET -2.542530 -6.985550 0.000000 
			CHANNELS 3 Zrotation Yrotation Xrotation
			JOINT RightFoot
			{
				OFFSET -2.568260 -7.056230 0.000000 
				CHANNELS 3 Zrotation Yrotation Xrotation
				JOINT RightToeBase
				{
					OFFSET -0.164730 -0.452590 2.363150 
					CHANNELS 3 Zrotation Yrotation Xrotation
					End Site
					{
						OFFSET 0.000000 0.000000 0.000000 
					}
				}
			}
		}
	}
	JOINT Spine
	{
		OFFSET 0.028270 2.035590 -0.193380 
		CHANNELS 3 Zrotation Yrotation Xrotation
		JOINT Spine1
		{
			OFFSET 0.056720 2.048850 -0.042750 
			CHANNELS 3 Zrotation Yrotation Xrotation
			JOINT Neck1
			{
				OFFSET -0.054170 1.746240 0.172020 
				CHANNELS 3 Zrotation Yrotation Xrotation
				JOINT Head
				{
					OFFSET 0.104070 1.761360 -0.123970 
					CHANNELS 3 Zrotation Yrotation Xrotation
					End Site
					{
						OFFSET 0.000000 0.000000 0.000000 
					}
				}
			}
			JOINT LeftArm
			{
				OFFSET 3.362410 1.200890 -0.311210 
				CHANNELS 3 Zrotation Yrotation Xrotation
				JOINT LeftForeArm
				{
					OFFSET 4.983000 -0.000000 -0.000000 
					CHANNELS 3 Zrotation Yrotation Xrotation
					JOINT LeftHand
					{
						OFFSET 3.483560 -0.000000 -0.000000 
						CHANNELS 3 Zrotation Yrotation Xrotation
						JOINT LeftHandIndex1
						{
							OFFSET 0.715260 -0.000000 -0.000000 
							CHANNELS 3 Zrotation Yrotation Xrotation
							End Site
							{
								OFFSET 0.000000 0.000000 0.000000 
							}
						}
					}
				}
			}
			JOINT RightArm
			{
				OFFSET -3.136600 1.374050 -0.404650 
				CHANNELS 3 Zrotation Yrotation Xrotation
				JOINT RightForeArm
				{
					OFFSET -5.241900 -0.000000 -0.000000 
					CHANNELS 3 Zrotation Yrotation Xrotation
					JOINT RightHand
					{
						OFFSET -3.444170 -0.000000 -0.000000 
						CHANNELS 3 Zrotation Yrotation Xrotation
						JOINT RightHandIndex1
						{
							OFFSET -0.622530 -0.000000 -0.000000 
							CHANNELS 3 Zrotation Yrotation Xrotation
							End Site
							{
								OFFSET 0.000000 0.000000 0.000000 
							}
						}
					}
				}
			}
		}
	}
}
MOTION
Frames: 9
Frame Time: 0.041667
14.869343 17.710523 1.442727 91.955219 -89.075297 -93.354069 -3.670646 4.588474 -12.086098 2.888970 13.707591 35.120549 -7.208262 18.886369 0.553480 3.222400 -11.046700 -32.437400 5.057746 3.507290 -8.704654 -3.136397 -14.587920 38.568061 5.531160 -16.975758 -7.539384 -0.041400 1.313900 -3.613000 -0.276720 0.596359 -0.484165 -2.462948 0.288607 9.444223 4.966982 -2.770883 19.276682 1.766300 -1.348600 4.623300 -66.186306 -4.744754 43.511118 26.940002 -37.347903 -11.935683 0.932645 1.126326 16.222685 -7.125000 0.000000 0.000000 65.473638 4.363539 44.099017 -29.517912 39.762008 -12.837516 2.425352 -0.100085 13.501093 7.125000 0.000000 0.000000 
14.870009 17.710079 1.441617 94.806564 -89.161653 -96.204059 -3.561839 4.672094 -12.101542 2.890407 13.704178 35.150362 -7.049806 18.579956 0.522390 3.177800 -10.977500 -32.203900 5.198364 3.623728 -8.639869 -3.124166 -14.598982 38.591908 5.497900 -16.903545 -7.744085 -0.020900 0.933900 -2.567000 -0.245985 0.602669 -0.460418 -2.417788 0.294247 9.455300 4.733108 -2.670052 18.194692 1.848400 -1.316700 4.638700 -66.277582 -4.690979 43.428808 27.088900 -37.473688 -12.036693 0.929634 1.124826 16.182181 -7.125000 0.000000 0.000000 65.385724 4.400386 44.152912 -29.604041 39.821459 -12.893277 2.422165 -0.111222 13.412357 7.125000 0.000000 0.000000 
14.871007 17.711411 1.441174 92.838972 -89.171023 -94.195524 -3.551144 4.676689 -12.155891 2.894749 13.700524 35.141714 -7.045721 18.586823 0.639078 3.174000 -10.971500 -32.183800 5.205002 3.641654 -8.666412 -3.120371 -14.597928 38.591490 5.465573 -16.825948 -7.776281 -0.014400 0.775900 -2.132300 -0.226448 0.569690 -0.445021 -2.360171 0.274919 9.483200 4.716857 -2.585166 17.485420 1.828600 -1.264600 4.257300 -66.330231 -4.724166 43.360777 27.113944 -37.496847 -12.061624 0.923232 1.131698 16.180036 -7.125000 0.000000 0.000000 65.334357 4.442569 44.176669 -29.630101 39.842017 -12.919487 2.430492 -0.107423 13.427065 7.125000 0.000000 0.000000 
14.870563 17.712188 1.440397 93.774010 -89.191903 -95.108598 -3.526585 4.661762 -12.172350 2.897633 13.700378 35.139038 -7.089435 18.665833 0.619297 3.166000 -10.959000 -32.141800 5.225911 3.662172 -8.687123 -3.121069 -14.599016 38.591993 5.477679 -16.854867 -7.751872 -0.018000 0.866500 -2.381600 -0.220613 0.564749 -0.441485 -2.364806 0.274554 9.463630 4.749193 -2.490490 16.955527 1.825900 -1.208800 3.970600 -66.335191 -4.769342 43.292759 27.086431 -37.469387 -12.043481 0.933734 1.125608 15.936845 -7.125000 0.000000 0.000000 65.369036 4.416187 44.113126 -29.642367 39.850833 -12.926229 2.424787 -0.111458 13.415624 7.125000 0.000000 0.000000 
14.870674 17.712742 1.439842 93.892714 -89.237353 -95.208383 -3.478371 4.657896 -12.192986 2.901901 13.698375 35.140845 -7.090856 18.669000 0.635684 3.167900 -10.962000 -32.151900 5.274892 3.674849 -8.699072 -3.116741 -14.599534 38.588387 5.472957 -16.844887 -7.769228 -0.016400 0.825800 -2.269500 -0.215499 0.566067 -0.442525 -2.384944 0.278767 9.432092 4.749222 -2.420219 16.485505 1.812600 -1.166800 3.727400 -66.338674 -4.782157 43.253919 27.091991 -37.471151 -12.047113 0.941226 1.120477 15.753893 -7.125000 0.000000 0.000000 65.395735 4.386038 44.073794 -29.664931 39.871222 -12.945193 2.425524 -0.110384 13.392170 7.125000 0.000000 0.000000 
14.870563 17.713186 1.439509 93.252354 -89.285336 -94.551693 -3.430833 4.643174 -12.209990 2.906660 13.696454 35.142362 -7.106153 18.697351 0.645622 3.182100 -10.984200 -32.226500 5.319843 3.662917 -8.721445 -3.114268 -14.600488 38.586643 5.469994 -16.838889 -7.772361 -0.015900 0.814300 -2.238000 -0.218699 0.571723 -0.454295 -2.436317 0.286256 9.373728 4.754868 -2.355084 16.152860 1.802200 -1.128300 3.562900 -66.316142 -4.780252 43.238379 27.077344 -37.456818 -12.036566 0.950470 1.113915 15.565222 -7.125000 0.000000 0.000000 65.454446 4.329920 44.026856 -29.675789 39.885922 -12.957167 2.427985 -0.105191 13.371604 7.125000 0.000000 0.000000 
14.870342 17.713408 1.439287 91.924509 -89.327499 -93.212375 -3.390496 4.621051 -12.220865 2.911380 13.695818 35.149943 -7.117982 18.716584 0.636280 3.198800 -11.010100 -32.313800 5.356977 3.637588 -8.744233 -3.112305 -14.601043 38.583179 5.473653 -16.848423 -7.770874 -0.016200 0.822200 -2.259600 -0.229460 0.578984 -0.477314 -2.509638 0.294613 9.286493 4.750888 -2.294402 15.977909 1.788400 -1.092900 3.487500 -66.271934 -4.746398 43.243257 27.052067 -37.436068 -12.019624 0.959086 1.107204 15.401149 -7.125000 0.000000 0.000000 65.538007 4.250633 43.991511 -29.677607 39.896257 -12.962220 2.431040 -0.098012 13.354655 7.125000 0.000000 0.000000 
14.869565 17.713630 1.439065 90.154493 -89.351993 -91.433818 -3.368443 4.595377 -12.224986 2.913376 13.694930 35.156400 -7.122304 18.719841 0.613214 3.208300 -11.024900 -32.363900 5.374702 3.602780 -8.767750 -3.112379 -14.601660 38.581719 5.481849 -16.868094 -7.764284 -0.017300 0.848300 -2.331500 -0.248159 0.590434 -0.508787 -2.596129 0.304026 9.181491 4.737243 -2.239539 15.956479 1.771200 -1.060800 3.499400 -66.207454 -4.685685 43.277040 27.017876 -37.410702 -11.997655 0.964920 1.102101 15.273811 -7.125000 0.000000 0.000000 65.638721 4.155880 43.971461 -29.668645 39.899782 -12.958811 2.433681 -0.091586 13.344465 7.125000 0.000000 0.000000 
14.868344 17.713852 1.438732 88.358931 -89.351605 -89.630885 -3.371754 4.573563 -12.225700 2.912366 13.693869 35.159127 -7.120865 18.712307 0.585839 3.210100 -11.027700 -32.373200 5.365472 3.560244 -8.791594 -3.115220 -14.602123 38.583886 5.490643 -16.888608 -7.749058 -0.019200 0.894100 -2.457600 -0.271728 0.605223 -0.543105 -2.679049 0.313365 9.080205 4.727113 -2.186872 16.075670 1.758600 -1.030300 3.592500 -66.133303 -4.615855 43.337582 26.971025 -37.376605 -11.967661 0.966787 1.100069 15.185705 -7.125000 0.000000 0.000000 65.741598 4.055817 43.967542 -29.649126 39.895538 -12.946624 2.434996 -0.087827 13.350951 7.125000 0.000000 0.000000 
